<svg width="502" height="251" viewBox="0 0 502 251" fill="none" xmlns="http://www.w3.org/2000/svg">
<path fill-rule="evenodd" clip-rule="evenodd" d="M325.635 174.92C313.418 166.48 315.661 151.403 328.271 144.833C331.421 143.202 336.138 142.393 339.718 142.393C345.923 142.393 354.637 143.908 360.717 151.273L364.546 138.851C355.983 135.964 349.09 134 338.842 134C319.59 134 302.095 144.794 302.095 163.145C302.095 187.989 330.394 192.928 344.214 204.296C361.556 218.517 349.961 241.579 328.906 241.579C314.755 241.579 304.2 231.506 304.2 231.506L301 244.377C309.607 248.483 321.5 251 331.203 251C350.746 251 369 239.872 369 217.388C369 193.853 341.141 185.652 325.635 174.92Z" fill="#4D4E4C"/>
<path fill-rule="evenodd" clip-rule="evenodd" d="M187.115 242.573C164.822 242.573 152.346 220.843 152.346 192.059C152.346 163.632 165.733 142.416 187.28 142.416C212.318 142.416 222.677 166.443 222.677 192.059C222.677 221.575 209.946 242.573 187.115 242.573ZM187.174 134C153.11 134 135 160.874 135 192.262C135 226.486 154.962 251 187.115 251C218.541 251 240 229.143 240 192.262C240 158.128 220.54 134 187.174 134Z" fill="#4D4E4C"/>
<path fill-rule="evenodd" clip-rule="evenodd" d="M63.8525 219.881C53.757 209.281 35.1467 188.951 35.1467 188.951C35.1467 188.951 51.5618 170.707 60.7267 161.198C69.9004 151.698 86.7321 136 86.7321 136H86.7085C86.7085 136 83.1749 136.537 77.6382 136.537C72.131 136.537 68.6181 136 68.5502 136C68.5354 136 53.2961 153.07 43.9836 162.375C34.7005 171.665 17.8924 188.8 17.7654 188.93C17.8097 153.595 18.7699 136 18.7699 136C18.7699 136 14.4918 136.537 9.37461 136.537C4.25152 136.537 0 136 0 136C0 136 0.986801 154.584 0.986801 191.981C0.986801 229.301 0 247.897 0 248C0 248 4.26334 247.463 9.37461 247.463C14.4918 247.463 18.7699 248 18.7699 248C18.764 247.897 17.7654 229.301 17.7654 191.981C17.7654 190.942 17.7654 189.969 17.7654 188.951C17.8924 189.084 35.4126 207.357 45.4697 218.574C55.0806 229.29 71.3126 248 71.3126 248C71.3126 248 75.4194 247.463 81.4052 247.463C87.391 247.463 92 248 92 248C92 248 73.9539 230.493 63.8525 219.881Z" fill="#4D4E4C"/>
<path fill-rule="evenodd" clip-rule="evenodd" d="M502 237.927C502 237.927 490.226 238.671 470.306 238.671C465.56 238.671 461.095 238.606 457.292 238.544C457.125 233.199 456.942 225.333 456.819 215.531C456.725 209.47 456.681 202.32 456.681 194.581C458.215 194.557 459.905 194.557 461.806 194.557C479.955 194.557 481.745 194.543 497.921 195.044C497.921 195.044 497.512 193.236 497.512 190.328C497.512 188.174 497.624 186.458 497.747 185.588C481.627 186.074 479.822 186.06 461.698 186.06C459.793 186.06 458.115 186.048 456.575 186.048C456.602 179.553 456.74 173.489 456.819 168.268C456.94 158.549 457.125 150.786 457.292 145.468C460.872 145.418 465.022 145.365 469.395 145.365C488.722 145.365 500.195 146.096 500.195 146.096C500.195 146.096 499.793 144.852 499.793 141.816C499.793 138.767 500.195 136.038 500.195 136.038C500.195 136.038 488.722 136.667 469.395 136.667C456.584 136.667 447.35 136.383 442.647 136.204L439 136V136.038L439.012 136.115C439.071 137.369 439.993 155.886 439.993 191.968C439.993 229.394 439 248 439 248C439 248 450.38 247.357 470.306 247.357C490.188 247.357 501.959 248 501.994 248C501.985 247.832 501.6 245.372 501.6 242.419C501.6 239.387 502 237.927 502 237.927Z" fill="#4D4E4C"/>
<path fill-rule="evenodd" clip-rule="evenodd" d="M468.613 123C468.613 123 467.275 122.039 465.604 121.35C463.796 120.595 462 120.032 462 120.032C468.508 116.03 473.453 110.748 478.818 105.402C480.124 104.091 481.602 102.85 483.381 102.299C488.428 100.775 493.089 105.334 491.775 110.197C491.027 112.977 488.901 115.087 486.573 116.549C483.985 118.208 481.114 119.41 478.249 120.48C475.465 121.515 472.734 122.411 469.819 122.853C469.533 122.897 468.613 123 468.613 123Z" fill="#4D4E4C"/>
<path fill-rule="evenodd" clip-rule="evenodd" d="M89 71V70.3765C89.4143 62.1547 89.6185 50.2006 89.6185 34.5142C89.6185 28.0205 89.5327 21.2656 89.361 14.2523C89.1864 7.23896 89.0651 2.69605 89 0.620567V0H89.6185C89.9618 0.0682921 90.7046 0.139553 91.8409 0.204876C92.9773 0.276138 94.2321 0.311768 95.6111 0.311768C96.783 0.311768 97.8661 0.276138 98.8663 0.204876C99.8636 0.139553 100.532 0.0682921 100.882 0H101.189V0.311768C101.326 0.448352 101.911 1.86467 102.944 4.56072C111.21 24.6683 118.818 42.3589 125.775 57.6296C131.146 45.7438 139.066 26.6398 149.536 0.311768L149.843 0H150.154C150.429 0.0682921 151.033 0.139553 151.962 0.204876C152.891 0.276138 154.043 0.311768 155.425 0.311768C156.662 0.311768 157.73 0.276138 158.627 0.204876C159.52 0.139553 160.106 0.0682921 160.382 0H160.796V36.3819L160.692 54.0012C160.692 61.1184 160.796 66.5788 161 70.3765V71H160.382C160.177 70.9317 159.642 70.8426 158.781 70.7417C157.919 70.6378 156.901 70.5843 155.735 70.5843C154.771 70.5843 153.753 70.6556 152.684 70.7922C151.616 70.9317 150.98 71 150.776 71H150.465V70.3765C150.465 70.1033 150.518 66.4571 150.619 59.4438C150.722 52.4305 150.776 44.6719 150.776 36.174C150.776 33.8937 150.705 29.8496 150.568 24.0477L150.465 13.887C149.293 16.9305 145.49 25.8975 139.051 40.7852C132.608 55.6788 128.255 65.7504 125.982 71C125.843 70.9317 125.5 70.8426 124.947 70.7417C124.396 70.6378 123.878 70.5843 123.399 70.5843C122.846 70.5843 122.348 70.6378 121.902 70.7417C121.455 70.8426 121.162 70.9317 121.023 71C119.508 67.4072 116.202 59.616 111.106 47.6293C106.01 35.6396 101.05 24.3921 96.2296 13.887C96.0254 17.2066 95.9218 24.3565 95.9218 35.3426C95.9218 43.7752 95.9573 51.2012 96.0254 57.6296C96.0905 64.055 96.1615 68.3039 96.2296 70.3765V71H95.6111C95.4039 70.9317 94.9896 70.8426 94.3711 70.7417C93.7497 70.6378 93.1282 70.5843 92.5097 70.5843C91.8232 70.5843 91.2017 70.6378 90.6543 70.7417C90.1009 70.8426 89.7576 70.9317 89.6185 71H89Z" fill="#4D4E4C"/>
<path fill-rule="evenodd" clip-rule="evenodd" d="M197.008 66.2886C198.037 65.9821 198.895 65.5872 199.587 65.1068C201.721 63.872 203.286 62.3454 204.285 60.53C205.281 58.7087 205.885 56.7194 206.089 54.5622C206.296 52.402 206.399 49.2987 206.399 45.2494C206.053 45.2494 205.349 45.3025 204.285 45.4056C203.215 45.5058 202.064 45.7328 200.825 46.0746C196.834 46.8291 193.705 47.6159 191.432 48.4411C189.164 49.2633 187.44 50.4451 186.272 51.9894C185.101 53.5337 184.551 55.6408 184.619 58.3167C184.829 60.8542 185.808 62.8936 187.561 64.4349C189.314 65.9821 191.432 66.7513 193.909 66.7513C194.941 66.7513 195.973 66.598 197.008 66.2886ZM214.451 71.0717C213.626 70.9361 212.727 70.8654 211.766 70.8654C210.941 70.8654 210.131 70.9361 209.341 71.0717C208.549 71.2102 208.049 71.3133 207.845 71.3811C206.881 69.5274 206.399 66.8898 206.399 63.4594C205.917 64.5557 205.021 65.655 203.714 66.7513C202.475 68.1246 201.375 69.0146 200.412 69.4272C197.662 71.1424 194.563 72 191.124 72C187.2 72 183.776 70.9361 180.852 68.8083C177.928 66.6835 176.328 63.7335 176.053 59.9612C175.71 54.8186 177.032 50.9078 180.027 48.2319C183.019 45.5589 187.75 43.7435 194.217 42.7798C194.906 42.6442 196.491 42.4055 198.969 42.0607C201.789 41.6481 203.714 41.3239 204.746 41.0823C205.781 40.8436 206.328 40.5194 206.399 40.1068C206.535 39.2846 206.606 38.1499 206.606 36.7118C206.606 33.0073 205.642 30.4551 203.714 29.0464C201.789 27.6407 198.969 26.8715 195.252 26.733C192.91 26.733 190.314 27.4373 187.458 28.8431C184.604 30.2489 182.416 31.9464 180.905 33.9327L180.077 27.9678C182.141 25.9785 184.672 24.4873 187.667 23.4942C190.657 22.501 193.841 22 197.212 22C203.268 22 207.774 23.4058 210.734 26.2173C213.691 29.0317 215.172 33.3168 215.172 39.0783V41.1353L214.658 56.2597V59.5516C214.658 61.3994 214.794 63.5449 215.069 65.9821C215.344 68.4134 215.651 70.217 216 71.3811C215.79 71.3133 215.276 71.2102 214.451 71.0717Z" fill="#4D4E4C"/>
<path fill-rule="evenodd" clip-rule="evenodd" d="M242.761 46.716C242.761 55.7352 242.963 63.8269 243.371 71C243.1 70.9325 242.522 70.8444 241.641 70.7447C240.754 70.6419 239.84 70.5891 238.889 70.5891C237.87 70.5891 236.901 70.6419 235.988 70.7447C235.068 70.8444 234.473 70.9325 234.201 71C234.747 60.3431 235.019 52.2484 235.019 46.716C235.019 38.1811 234.747 30.4298 234.201 23.4593V22.7431C234.473 22.8136 235.068 22.8987 235.988 22.9985C236.901 23.1012 237.87 23.154 238.889 23.154C239.84 23.154 240.754 23.1012 241.641 22.9985C242.522 22.8987 243.1 22.8136 243.371 22.7431V23.4593C242.963 27.8324 242.761 35.5866 242.761 46.716ZM243.421 1.63772C244.475 2.73246 245 3.96222 245 5.32698C245 7.03514 244.492 8.38229 243.474 9.37431C242.455 10.3663 241.13 10.8594 239.501 10.8594C238.074 10.8594 236.802 10.3986 235.678 9.4741C234.557 8.55545 234 7.34331 234 5.8406C234 4.19995 234.473 2.81758 235.424 1.69055C236.373 0.56058 237.733 0 239.501 0C241.063 0 242.367 0.545905 243.421 1.63772Z" fill="#4D4E4C"/>
<path fill-rule="evenodd" clip-rule="evenodd" d="M288.278 48.5426C290.756 50.766 292 53.6217 292 57.1156C292 60.333 291.148 63.0682 289.452 65.3269C287.753 67.5856 285.56 69.2649 282.878 70.356C280.195 71.45 277.357 72 274.368 72C272.263 72 269.934 71.7588 267.388 71.2795C264.84 70.803 262.613 70.153 260.712 69.3325L260 69.0237L262.344 62.3506C262.344 62.4888 262.887 63.0329 263.976 63.9916C265.059 64.9504 266.437 65.8415 268.101 66.6621C269.765 67.4826 271.615 67.8914 273.656 67.8914C275.831 67.8914 277.766 67.2591 279.465 65.9945C281.161 64.7298 282.282 63.2064 282.825 61.4271C283.164 60.536 283.336 59.7154 283.336 58.9596C283.336 56.5656 282.18 54.3775 279.871 52.3923C278.443 51.2983 276.269 50.2689 273.349 49.3102C270.494 47.8073 268.27 46.5397 266.676 45.5133C265.076 44.484 263.684 43.1164 262.496 41.4047C261.308 39.696 260.712 37.6079 260.712 35.1433C260.712 32.4729 261.544 30.1495 263.208 28.1643C264.875 26.1792 267.015 24.6557 269.63 23.594C272.243 22.5323 275.013 22 277.932 22C279.836 22 281.704 22.1735 283.54 22.5147C285.373 22.8588 286.886 23.2029 288.074 23.544C289.262 23.8852 289.992 24.1234 290.266 24.2616L287.718 31.1406C287.718 31.0054 287.291 30.473 286.442 29.5496C285.592 28.6231 284.474 27.7702 283.082 26.9821C281.687 26.1968 280.075 25.8027 278.242 25.8027C276.882 25.8027 275.355 26.1086 273.656 26.7233C272.363 27.3409 271.277 28.2467 270.392 29.4466C269.511 30.6436 269.07 31.8582 269.07 33.0905C268.866 34.1846 269.102 35.2816 269.782 36.3756C270.462 37.4697 271.312 38.3608 272.331 39.0431C274.435 40.346 276.307 41.3018 277.932 41.9194C282.349 44.1105 285.8 46.3192 288.278 48.5426Z" fill="#4D4E4C"/>
<path fill-rule="evenodd" clip-rule="evenodd" d="M339.548 62.2476C342.211 58.4832 343.545 53.3482 343.545 46.8485C343.545 41.0959 342.351 36.2227 339.961 32.217C337.574 28.2143 333.917 26.2145 329.003 26.2145C324.637 26.2145 321.119 28.1114 318.458 31.9112C315.789 35.708 314.455 40.6871 314.455 46.8485C314.455 53.3482 315.738 58.4832 318.301 62.2476C320.86 66.0121 324.292 67.8914 328.586 67.8914C333.226 67.8914 336.878 66.0121 339.548 62.2476ZM341.521 25.0822C345.226 27.135 348.065 30.0289 350.039 33.7581C352.012 37.4873 353 41.8518 353 46.8485C353 51.8424 352.012 56.2421 350.039 60.0389C348.065 63.8387 345.226 66.7797 341.521 68.8678C337.815 70.9589 333.5 72 328.586 72C323.943 72 319.842 70.9383 316.274 68.8178C312.705 66.6974 309.935 63.7358 307.961 59.936C305.988 56.1392 305 51.7747 305 46.8485C305 42.5341 305.866 38.499 307.598 34.7316C309.327 30.9701 311.961 27.9055 315.497 25.5439C319.027 23.1852 323.393 22 328.586 22C333.5 22 337.815 23.0294 341.521 25.0822Z" fill="#4D4E4C"/>
<path fill-rule="evenodd" clip-rule="evenodd" d="M408.901 64.1337C408.965 67.7397 409 70.0314 409 71C408.798 70.9315 408.287 70.8093 407.473 70.6364C406.655 70.4636 405.773 70.3742 404.821 70.3742C403.869 70.3742 402.899 70.4636 401.915 70.6364C400.928 70.8093 400.303 70.9315 400.032 71C400.096 68.9884 400.216 64.9324 400.388 58.826C400.554 52.7256 400.642 48.0109 400.642 44.6791C400.642 41.3503 400.505 39.13 400.233 38.0214C400.096 36.5641 399.74 35.1783 399.164 33.8581C398.586 32.5439 397.751 31.468 396.665 30.6365C395.85 30.0107 394.831 29.4743 393.61 29.0243C392.386 28.5713 391.227 28.3478 390.141 28.3478C388.645 28.3478 387.556 28.4491 386.879 28.6607C379.54 30.2551 375.869 37.1542 375.869 49.361V71C375.597 70.9315 375.037 70.8093 374.187 70.6364C373.337 70.4636 372.438 70.3742 371.486 70.3742C370.604 70.3742 369.701 70.4636 368.787 70.6364C367.867 70.8093 367.272 70.9315 367 71C367.067 69.1255 367.187 65.3466 367.356 59.6604C367.526 53.9743 367.613 49.5338 367.613 46.3421C367.613 42.1162 367.476 35.8369 367.207 27.5133C367.067 24.8818 367 23.0401 367 22C367.272 22.0715 367.867 22.1579 368.787 22.2593C369.701 22.3636 370.604 22.4172 371.486 22.4172C372.438 22.4172 373.372 22.3636 374.289 22.2593C375.209 22.1579 375.802 22.0715 376.076 22V31.7809C377.025 29.4922 378.57 27.5312 380.714 25.901C382.854 24.2709 385.112 23.2159 387.492 22.7272C389.121 22.3129 390.853 22.1073 392.69 22.1073C395.272 22.1073 397.736 22.5752 400.081 23.5109C402.426 24.4437 404.345 25.8504 405.84 27.7219C407.198 29.5279 408.033 31.5395 408.337 33.7568C408.644 35.977 408.798 38.9602 408.798 42.7033V50.2967C408.798 55.9144 408.831 60.5277 408.901 64.1337Z" fill="#4D4E4C"/>
</svg>
